<svg width="167" height="43" viewBox="0 0 167 43" fill="none" xmlns="http://www.w3.org/2000/svg">
<g clip-path="url(#clip0_3941_12329)">
<path d="M144.947 0C134.468 0 125.743 7.49625 123.836 17.4199C121.942 7.94017 113.572 0.793008 103.533 0.793008H82.8259V30.445C82.8259 24.5954 78.5542 19.7465 72.9628 18.8405C75.5517 17.0547 77.2487 14.0703 77.2487 10.6885C77.2487 5.22417 72.8175 0.793008 67.3532 0.793008H41.414V30.445C41.414 24.5954 37.1422 19.7465 31.5508 18.8405C34.1397 17.0547 35.8367 14.0703 35.8367 10.6885C35.8367 5.22417 31.4055 0.793008 25.9412 0.793008H0V42.207H29.652C36.1454 42.207 41.412 36.9404 41.412 30.4471V42.207H71.064C77.5574 42.207 82.8239 36.9404 82.8239 30.4471V42.207H103.531C113.57 42.207 121.94 35.0639 123.834 25.5801C125.741 35.5038 134.466 43 144.945 43C156.82 43 166.443 33.3729 166.443 21.502C166.443 9.63111 156.82 0.00201783 144.947 0.00201783V0Z" fill="#FAFAFA"/>
</g>
<defs>
<clipPath id="clip0_3941_12329">
<rect width="166.445" height="43" fill="white"/>
</clipPath>
</defs>
</svg>
