<svg id="Group_1385" data-name="Group 1385" xmlns="http://www.w3.org/2000/svg" xmlns:xlink="http://www.w3.org/1999/xlink" width="1440" height="501.969" viewBox="0 0 1440 501.969">
  <defs>
    <style>
      .cls-1 {
        fill: #ee3124;
      }

      .cls-2 {
        clip-path: url(#clip-path);
      }
    </style>
    <clipPath id="clip-path">
      <rect id="Rectangle_28" data-name="Rectangle 28" class="cls-1" width="1440" height="501.969"/>
    </clipPath>
  </defs>
  <g id="Group_2" data-name="Group 2" class="cls-2">
    <path id="Path_6" data-name="Path 6" class="cls-1" d="M995.09,266.418V501.969H880.834V266.418c0-31.553-20.217-57.128-51.767-57.128-31.439,0-51.611,25.4-51.752,56.8,0,.111.006.219.006.333V501.969H663.045V266.418c0-.114.009-.222.009-.333-.144-31.4-20.316-56.8-51.755-56.8-31.55,0-51.767,25.575-51.767,57.128V501.969H445.276V266.418A165.977,165.977,0,0,1,720.184,141.144,165.974,165.974,0,0,1,995.09,266.418M1440,0V301.182c0,110.892-89.9,200.787-200.787,200.787s-200.787-89.9-200.787-200.787,89.9-200.787,200.787-200.787a199.961,199.961,0,0,1,86.711,19.647V0ZM1325.921,301.182h0v-.006a86.714,86.714,0,1,0,0,.006Zm-924.348,0c0,110.892-89.9,200.787-200.787,200.787S0,412.074,0,301.182,89.9,100.395,200.787,100.395s200.787,89.9,200.787,200.787m-114.076,0a86.711,86.711,0,1,0-86.711,86.711A86.71,86.71,0,0,0,287.5,301.182"/>
  </g>
</svg>
