<?xml version="1.0" encoding="UTF-8"?>
<svg xmlns="http://www.w3.org/2000/svg" width="169" height="49" viewBox="0 0 169 49" fill="none">
  <path d="M50.049 0V5.9952H59.272V15.2183H65.2607V5.9952V0H50.049Z" fill="#FF1493"></path>
  <path d="M22.0626 11.3253C22.0626 11.8552 21.9783 12.3365 21.8059 12.7693C21.6334 13.2021 21.3768 13.5702 21.0318 13.8735C20.6869 14.1769 20.2578 14.4115 19.7444 14.5733C19.2311 14.7351 18.6335 14.82 17.9476 14.82H7.86889V7.94392H17.9476C19.3153 7.94392 20.342 8.23919 21.0318 8.83377C21.7217 9.42835 22.0626 10.2575 22.0626 11.3253ZM29.9716 11.2808C29.9716 9.52542 29.6948 7.94796 29.1374 6.54847C28.5799 5.14899 27.7336 3.96387 26.5946 2.99717C25.4556 2.02643 24.0238 1.28624 22.2952 0.768505C20.5706 0.258865 18.5292 0 16.1749 0H0V30.9384H7.86889V22.7235L16.211 22.7437C18.5653 22.7437 20.6067 22.4565 22.3353 21.8822C24.0639 21.3078 25.4917 20.511 26.6227 19.4877C27.7537 18.4643 28.5959 17.255 29.1454 15.8555C29.6948 14.456 29.9716 12.9311 29.9716 11.2849" fill="white"></path>
  <path d="M32.3887 0V30.9384H40.3528V12.4093L57.6052 30.9384H65.2607V27.9898L40.0442 0H32.3887Z" fill="white"></path>
  <path d="M158.746 24.8795V20.0918H162.959C164.007 20.0918 164.791 20.2911 165.309 20.6941C165.83 21.097 166.089 21.6646 166.089 22.4012C166.089 22.7781 166.022 23.1204 165.893 23.4237C165.763 23.7313 165.567 23.9913 165.304 24.2036C165.041 24.4159 164.716 24.5849 164.323 24.7019C163.935 24.8188 163.476 24.8795 162.959 24.8795H158.746ZM156 30.941H158.751V27.1889L162.915 27.1975H162.99L165.54 30.941H168.906L165.959 26.7253C166.472 26.5346 166.922 26.292 167.306 26.006C167.689 25.7157 168.006 25.3864 168.255 25.0138C168.505 24.6412 168.692 24.2383 168.817 23.7963C168.938 23.3544 169 22.8908 169 22.4012C169 21.6776 168.875 21.0277 168.63 20.4558C168.385 19.8838 168.01 19.3986 167.506 18.9956C167.003 18.597 166.37 18.2937 165.607 18.0814C164.845 17.8691 163.944 17.7651 162.901 17.7651H156.009V30.9367L156 30.941ZM140.427 30.941H152.152V28.6057H143.178V24.9402H150.967V22.7391H143.178V20.1091H151.97V17.7651H140.427V30.9367V30.941ZM129.286 30.941H132.037V20.1091H137.039V17.7651H124.284V20.1091H129.286V30.941ZM111.146 24.8795V20.0918H115.359C116.407 20.0918 117.187 20.2911 117.708 20.6941C118.23 21.097 118.489 21.6646 118.489 22.4012C118.489 22.7781 118.422 23.1204 118.292 23.4237C118.163 23.7313 117.967 23.9913 117.704 24.2036C117.441 24.4159 117.115 24.5849 116.723 24.7019C116.331 24.8188 115.876 24.8795 115.359 24.8795H111.146ZM108.395 30.941H111.146V27.1889L115.31 27.1975H115.386L117.936 30.941H121.302L118.355 26.7253C118.868 26.5346 119.318 26.292 119.701 26.006C120.085 25.7157 120.397 25.3864 120.651 25.0138C120.9 24.6412 121.088 24.2383 121.208 23.7963C121.328 23.3544 121.391 22.8908 121.391 22.4012C121.391 21.6776 121.266 21.0277 121.021 20.4558C120.776 19.8838 120.401 19.3986 119.897 18.9956C119.394 18.597 118.761 18.2937 117.998 18.0814C117.236 17.8691 116.335 17.7651 115.292 17.7651H108.4V30.9367L108.395 30.941ZM92.1673 22.4878C92.417 21.9506 92.7692 21.4913 93.215 21.1187C93.6608 20.746 94.1914 20.4601 94.8021 20.2651C95.4129 20.0658 96.0772 19.9705 96.7905 19.9705C97.5038 19.9705 98.1725 20.0701 98.7788 20.2651C99.3896 20.4601 99.9157 20.746 100.362 21.1187C100.807 21.4913 101.155 21.9506 101.409 22.4878C101.663 23.0294 101.793 23.636 101.793 24.3162C101.793 24.9965 101.663 25.6074 101.409 26.1533C101.155 26.6993 100.803 27.1629 100.362 27.5485C99.9157 27.9341 99.3896 28.2287 98.7788 28.4367C98.1681 28.6447 97.5038 28.7487 96.7905 28.7487C96.0772 28.7487 95.4129 28.6447 94.8021 28.4367C94.1914 28.2287 93.6608 27.9341 93.215 27.5485C92.7647 27.1629 92.417 26.6993 92.1673 26.1533C91.9132 25.6074 91.7884 24.9965 91.7884 24.3162C91.7884 23.636 91.9132 23.0251 92.1673 22.4878ZM89.6083 27.0676C89.9828 27.9038 90.5133 28.6187 91.191 29.2209C91.8686 29.8232 92.6845 30.2911 93.6385 30.6247C94.5881 30.9584 95.6447 31.1273 96.7994 31.1273C97.9541 31.1273 99.0018 30.9584 99.9558 30.6247C100.91 30.2911 101.726 29.8232 102.403 29.2209C103.081 28.6187 103.612 27.9038 103.986 27.0676C104.361 26.2313 104.548 25.3171 104.548 24.3162C104.548 23.3154 104.361 22.4098 103.986 21.5866C103.612 20.759 103.081 20.0528 102.403 19.4592C101.726 18.8656 100.905 18.4064 99.9558 18.0814C99.0018 17.7564 97.9496 17.5918 96.7994 17.5918C95.6492 17.5918 94.5881 17.7564 93.6385 18.0814C92.6889 18.4064 91.8731 18.8656 91.191 19.4592C90.5133 20.0528 89.9828 20.7634 89.6083 21.5866C89.2338 22.4142 89.0466 23.324 89.0466 24.3162C89.0466 25.3084 89.2338 26.2313 89.6083 27.0676ZM75.5472 25.1351V20.0961H80.0143C81.053 20.0961 81.8377 20.3128 82.3593 20.7504C82.8809 21.188 83.1439 21.7946 83.1439 22.5745C83.1439 22.9644 83.0771 23.3154 82.9478 23.6317C82.8185 23.948 82.6223 24.2209 82.3593 24.4419C82.0963 24.6629 81.7708 24.8362 81.3785 24.9575C80.9862 25.0788 80.5314 25.1395 80.0143 25.1395H75.5472V25.1351ZM72.8009 30.941H75.5516V27.4445L79.9652 27.4532C81.004 27.4532 81.909 27.3318 82.6714 27.0849C83.4337 26.8422 84.0668 26.5 84.5661 26.0667C85.0654 25.6291 85.4399 25.1178 85.6806 24.5199C85.9214 23.9263 86.0462 23.2764 86.0462 22.5745C86.0462 21.8292 85.9214 21.1577 85.6762 20.5597C85.431 19.9662 85.0565 19.4592 84.5527 19.0476C84.0489 18.636 83.4159 18.3197 82.6535 18.0987C81.8912 17.8778 80.9906 17.7694 79.9474 17.7694H72.8009V30.941Z" fill="white"></path>
  <path d="M166.212 48.7117H169V35.5415H166.212V48.7117ZM152.744 48.7117H163.464V46.369H155.515V35.5415H152.744V48.7117ZM139.107 48.7117H149.827V46.369H141.878V35.5415H139.107V48.7117ZM123.78 48.7117H135.601V46.3776H126.55V42.7111H134.401V40.5104H126.55V37.8798H135.418V35.5372H123.78V48.7074V48.7117ZM112.453 48.7117H115.201L121.192 35.5415H118.123L113.827 45.5867L109.536 35.5415H106.467L112.458 48.7117H112.453ZM92.8742 40.2611C93.1285 39.7195 93.4809 39.2639 93.9315 38.8899C94.382 38.5159 94.9173 38.2322 95.5329 38.0345C96.1485 37.8368 96.8177 37.7379 97.5403 37.7379C98.263 37.7379 98.9322 37.8368 99.5478 38.0345C100.163 38.2322 100.694 38.5159 101.145 38.8899C101.595 39.2639 101.948 39.7195 102.202 40.2611C102.456 40.8027 102.586 41.4087 102.586 42.0879C102.586 42.767 102.456 43.3817 102.202 43.9233C101.948 44.4692 101.591 44.9334 101.145 45.316C100.694 45.7028 100.163 45.9994 99.5478 46.2057C98.9322 46.412 98.263 46.5195 97.5403 46.5195C96.8177 46.5195 96.1485 46.4163 95.5329 46.2057C94.9173 45.9994 94.382 45.7028 93.9315 45.316C93.4809 44.9291 93.1285 44.4649 92.8742 43.9233C92.6199 43.3774 92.495 42.767 92.495 42.0879C92.495 41.4087 92.6244 40.7984 92.8742 40.2611ZM90.2869 44.8431C90.666 45.677 91.1969 46.3948 91.8839 46.9966C92.5709 47.5984 93.3917 48.0669 94.3508 48.3979C95.3099 48.7331 96.3716 48.9008 97.5403 48.9008C98.7091 48.9008 99.7619 48.7331 100.725 48.3979C101.689 48.0626 102.51 47.5941 103.197 46.9966C103.884 46.3948 104.415 45.677 104.794 44.8431C105.173 44.0092 105.36 43.0937 105.36 42.0922C105.36 41.0907 105.173 40.188 104.794 39.3627C104.415 38.5374 103.884 37.8282 103.197 37.235C102.51 36.6418 101.689 36.1819 100.725 35.8552C99.7619 35.5286 98.7002 35.3652 97.5403 35.3652C96.3805 35.3652 95.3099 35.5286 94.3508 35.8552C93.3917 36.1819 92.5709 36.6418 91.8839 37.235C91.1969 37.8282 90.666 38.5374 90.2869 39.3627C89.9077 40.188 89.7203 41.0993 89.7203 42.0922C89.7203 43.0851 89.9077 44.0092 90.2869 44.8431Z" fill="white"></path>
  <path d="M83.6678 35.1763L83.732 45.0199L75.4695 35.1763H72.8009V48.7118H75.4695V38.9298L83.6678 48.7118H86.3365V35.1763H83.6678Z" fill="white"></path>
</svg>
